<?xml version="1.0" standalone="no"?>
<!DOCTYPE svg PUBLIC "-//W3C//DTD SVG 20010904//EN"
 "http://www.w3.org/TR/2001/REC-SVG-20010904/DTD/svg10.dtd">
<svg version="1.0" xmlns="http://www.w3.org/2000/svg"
 width="250.000000pt" height="250.000000pt" viewBox="0 0 250.000000 250.000000"
 preserveAspectRatio="xMidYMid meet">
<metadata>
Created by potrace 1.14, written by Peter Selinger 2001-2017
</metadata>
<g transform="translate(0.000000,250.000000) scale(0.100000,-0.100000)"
fill="#000000" stroke="none">
<path d="M1125 2398 c-59 -12 -188 -60 -203 -75 -8 -7 -23 -18 -34 -24 -41
-22 -120 -95 -159 -149 -32 -42 -89 -145 -89 -159 0 -5 -5 -22 -11 -38 -7 -15
-13 -39 -15 -53 -2 -14 -7 -46 -12 -72 -9 -48 -7 -128 4 -188 4 -19 8 -41 10
-48 1 -8 5 -16 7 -19 7 -7 117 68 117 80 0 6 3 8 6 4 5 -5 100 57 141 93 7 5
15 10 18 10 7 0 104 69 129 92 11 10 26 18 33 18 7 0 13 4 13 9 0 9 152 111
166 111 3 0 53 -31 110 -70 57 -38 107 -70 112 -70 5 0 8 37 8 83 l-1 82 90 1
c50 1 97 -2 105 -6 12 -7 15 -29 12 -122 -1 -62 -2 -123 -2 -134 0 -34 18 -74
37 -81 10 -3 34 -19 54 -35 20 -15 42 -28 48 -28 6 0 11 -4 11 -10 0 -5 7 -10
15 -10 8 0 15 -4 15 -10 0 -5 4 -10 9 -10 20 0 46 199 28 217 -4 3 -2 14 4 24
5 11 6 19 1 19 -4 0 -9 14 -10 32 -4 46 -37 140 -73 209 -34 63 -133 182 -143
172 -3 -4 -6 -2 -6 4 0 19 -133 98 -215 128 -82 30 -243 41 -330 23z"/>
<path d="M1148 1622 c-42 -31 -85 -63 -95 -69 -10 -7 -59 -41 -110 -77 -50
-35 -94 -62 -97 -58 -3 3 -6 0 -6 -6 0 -6 -8 -13 -17 -17 -10 -3 -31 -17 -47
-31 l-29 -25 44 -45 c24 -24 48 -44 54 -44 5 0 16 -9 23 -20 7 -11 19 -20 27
-20 8 0 15 -5 15 -11 0 -5 4 -8 9 -5 5 4 11 3 13 -1 6 -14 97 -54 125 -56 l28
-2 0 113 c0 61 2 112 5 113 28 4 309 1 316 -4 6 -3 10 -51 9 -107 0 -55 2
-105 6 -111 5 -8 21 -7 56 5 72 24 253 146 253 171 0 4 8 14 18 21 10 8 12 13
5 14 -11 0 -184 110 -218 137 -5 5 -31 22 -57 38 -27 17 -48 33 -48 38 0 4 -4
7 -10 7 -5 0 -33 18 -62 40 -29 22 -58 40 -64 40 -7 0 -14 6 -17 13 -11 28
-53 14 -129 -41z"/>
<path d="M590 808 c0 -5 -4 -7 -9 -3 -8 4 -18 -13 -26 -45 -1 -3 -8 -18 -15
-35 -7 -16 -14 -35 -15 -40 -2 -6 -12 -31 -23 -56 -11 -25 -22 -51 -24 -59 -2
-8 -6 -17 -9 -20 -3 -3 -13 -27 -22 -53 l-16 -48 37 3 c33 4 37 8 45 40 l9 36
65 4 c73 3 84 -2 102 -48 10 -25 18 -31 42 -32 33 -1 35 7 15 51 -8 18 -28 68
-46 112 -17 44 -37 94 -45 110 -7 17 -16 42 -20 57 -6 24 -45 48 -45 26z m46
-199 c4 -24 3 -25 -38 -23 -24 1 -44 3 -45 3 -6 3 32 97 41 103 12 8 35 -38
42 -83z"/>
<path d="M1114 810 c-19 -5 -20 -14 -19 -180 l0 -175 24 -3 c32 -5 38 9 37 84
-1 35 1 64 4 65 3 0 22 2 43 4 45 4 97 24 97 37 0 5 4 7 9 3 22 -13 27 99 6
120 -37 38 -141 61 -201 45z m148 -72 c27 -43 -5 -78 -73 -78 -29 0 -31 3 -31
55 0 14 0 29 1 33 2 14 94 4 103 -10z"/>
<path d="M1399 811 c-6 -27 -5 -341 1 -351 5 -8 17 -10 33 -6 24 6 25 9 23 76
0 39 3 71 9 73 8 3 139 1 156 -2 3 -1 3 -25 0 -53 -10 -86 -5 -100 32 -94 18
2 33 5 33 5 1 1 -2 17 -6 36 -4 19 -5 35 -1 35 3 0 6 60 6 134 0 74 -3 132 -7
129 -5 -2 -8 2 -8 9 0 22 -39 16 -47 -7 -3 -11 -6 -45 -5 -76 0 -52 -1 -57
-24 -62 -13 -2 -26 -2 -29 1 -3 3 -25 5 -49 3 -53 -3 -60 6 -62 79 -1 30 -2
58 -3 61 -1 9 -51 18 -52 10z"/>
<path d="M819 778 c-1 -40 0 -310 0 -319 1 -4 51 -7 111 -8 l111 0 -4 24 c-4
36 -10 38 -85 39 l-67 1 -2 130 c-1 72 -2 138 -2 148 -1 12 -9 17 -31 17 -27
0 -30 -3 -31 -32z"/>
<path d="M1871 788 c-5 -13 -16 -40 -24 -60 -9 -21 -13 -38 -9 -38 4 0 1 -4
-6 -8 -7 -5 -14 -17 -16 -28 -2 -11 -18 -50 -34 -87 -17 -37 -28 -67 -25 -67
3 0 -2 -9 -12 -20 -14 -16 -15 -21 -4 -25 8 -2 23 -3 34 -1 11 3 23 5 27 5 3
1 12 17 18 36 l12 35 73 0 74 0 10 -38 c9 -32 15 -38 40 -40 32 -2 52 15 31
28 -6 4 -11 10 -10 14 2 7 -38 111 -98 254 -22 50 -31 62 -49 62 -15 0 -27 -8
-32 -22z m71 -179 c3 -22 -1 -24 -40 -25 -38 -1 -42 1 -39 20 2 12 7 28 10 36
4 8 12 29 18 45 l12 30 18 -41 c10 -23 20 -53 21 -65z"/>
<path d="M145 288 c-32 -25 -35 -88 -5 -118 28 -28 76 -26 91 3 11 20 11 21
-5 7 -27 -22 -57 -22 -78 -1 -52 56 18 145 74 94 20 -18 24 -6 5 17 -17 21
-54 21 -82 -2z"/>
<path d="M369 303 c-36 -9 -50 -86 -23 -128 33 -51 111 -22 116 42 4 64 -34
99 -93 86z m62 -23 c26 -15 26 -80 -1 -105 -39 -35 -90 2 -86 62 4 46 44 66
87 43z"/>
<path d="M574 302 c-12 -8 -16 -102 -5 -102 5 0 8 10 8 23 1 48 3 53 16 32 6
-11 12 -22 13 -25 4 -22 26 -62 30 -57 3 3 -6 32 -22 64 -15 32 -26 61 -26 66
2 9 0 9 -14 -1z"/>
<path d="M786 294 c-23 -23 -20 -41 12 -61 33 -21 42 -33 42 -55 0 -19 -41
-18 -65 2 -13 11 -14 10 -9 -3 3 -9 13 -19 22 -21 66 -20 95 38 37 74 -51 31
-48 78 4 59 24 -9 25 -8 7 6 -25 19 -31 19 -50 -1z"/>
<path d="M960 298 c-24 -7 -24 -8 3 -4 l27 3 0 -76 c0 -45 4 -70 9 -61 4 8 7
38 6 65 -2 57 8 75 37 70 11 -3 18 -1 14 3 -10 9 -66 10 -96 0z"/>
<path d="M1155 302 c-9 -9 -5 -153 3 -148 5 3 8 35 7 71 -1 65 0 66 25 63 19
-2 25 -9 25 -28 0 -18 -5 -25 -18 -24 -10 1 -17 -1 -15 -5 33 -64 43 -81 50
-81 5 0 2 13 -7 30 -14 27 -14 32 0 54 13 19 14 29 5 45 -6 12 -14 21 -18 22
-43 5 -53 5 -57 1z"/>
<path d="M1579 303 c-25 -6 -48 -55 -42 -88 8 -41 31 -65 62 -65 31 1 67 25
52 35 -6 3 -11 2 -11 -4 0 -6 -11 -13 -25 -17 -56 -14 -88 67 -45 113 21 24
56 21 78 -6 10 -14 12 -14 10 -1 -3 16 -36 40 -53 38 -5 0 -17 -2 -26 -5z"/>
<path d="M1750 298 c0 -4 10 -8 23 -8 22 0 23 -3 22 -65 -1 -86 13 -84 17 3 3
56 6 67 20 64 9 -1 19 1 21 5 3 5 -19 8 -49 8 -30 1 -54 -3 -54 -7z"/>
<path d="M2104 300 c-26 -10 -46 -78 -31 -106 37 -71 116 -54 121 26 4 62 -39
101 -90 80z m64 -22 c16 -16 15 -79 -2 -101 -16 -21 -54 -17 -72 8 -16 22 -18
71 -4 80 6 4 8 11 5 16 -9 13 59 11 73 -3z"/>
<path d="M2299 302 c-5 -35 -2 -152 4 -152 4 0 7 30 8 68 1 59 2 64 12 40 6
-16 14 -28 18 -28 4 0 10 -13 14 -29 6 -28 31 -59 40 -50 8 9 12 115 4 134 -5
13 -8 -6 -9 -50 l-1 -70 -32 67 c-28 59 -55 92 -58 70z"/>
<path d="M1339 295 c-7 -13 -4 -84 5 -112 11 -35 68 -43 86 -12 11 17 11 119
0 119 -4 0 -6 -23 -5 -50 3 -67 -21 -95 -58 -67 -11 8 -17 30 -19 72 -2 33 -6
56 -9 50z"/>
<path d="M1956 291 c-8 -12 -5 -130 3 -135 4 -3 7 29 8 70 1 73 -1 82 -11 65z"/>
<path d="M652 241 c0 -27 -3 -59 -7 -71 -5 -16 -3 -21 6 -18 16 5 23 138 9
138 -5 0 -9 -22 -8 -49z"/>
<path d="M560 168 c0 -12 3 -18 7 -14 11 10 12 36 2 36 -5 0 -9 -10 -9 -22z"/>
</g>
</svg>
